<svg width="44" height="45" viewBox="0 0 44 45" fill="none" xmlns="http://www.w3.org/2000/svg">
<path id="safesecure/supericons" fill-rule="evenodd" clip-rule="evenodd" d="M22.3094 0.297576C21.9855 0.13323 21.6026 0.13323 21.2787 0.297576L0.623692 10.7769C0.241079 10.9711 0 11.3637 0 11.7928V32.7515C0 33.1805 0.241079 33.5732 0.623692 33.7673L21.2787 44.2467C21.6026 44.411 21.9855 44.411 22.3094 44.2467L42.9644 33.7673C43.347 33.5732 43.5881 33.1805 43.5881 32.7515V11.7928C43.5881 11.3637 43.347 10.9711 42.9644 10.7769L22.3094 0.297576ZM21.7938 9.21478L27.7641 19.04L33.8551 28.8L21.7938 28.7347L9.73258 28.8L15.8235 19.04L21.7938 9.21478Z" fill="white"/>
</svg>
